<mxfile host="app.diagrams.net" agent="Mozilla/5.0 (Windows NT 10.0; Win64; x64) AppleWebKit/537.36 (KHTML, like Gecko) Chrome/136.0.0.0 Safari/537.36 Edg/136.0.0.0" version="27.0.9">
  <diagram name="Pagina-1" id="Nu88dFfC4uzOYLKEpIPp">
    <mxGraphModel dx="2043" dy="635" grid="1" gridSize="10" guides="1" tooltips="1" connect="1" arrows="1" fold="1" page="1" pageScale="1" pageWidth="827" pageHeight="1169" math="0" shadow="0">
      <root>
        <mxCell id="0" />
        <mxCell id="1" parent="0" />
        <mxCell id="IIdklsZDRmUn1JEuDDiX-8" style="edgeStyle=orthogonalEdgeStyle;shape=connector;rounded=0;orthogonalLoop=1;jettySize=auto;html=1;exitX=0.5;exitY=0;exitDx=0;exitDy=0;strokeColor=default;align=center;verticalAlign=middle;fontFamily=Helvetica;fontSize=11;fontColor=default;labelBackgroundColor=default;startFill=0;endArrow=none;" parent="1" edge="1">
          <mxGeometry relative="1" as="geometry">
            <mxPoint x="-499.8275862068965" y="160" as="targetPoint" />
            <mxPoint x="-500" y="369.76" as="sourcePoint" />
          </mxGeometry>
        </mxCell>
        <mxCell id="MyaQz2SFNksA92ETXeCg-1" value="&lt;font&gt;Cliente&lt;/font&gt;" style="whiteSpace=wrap;html=1;align=center;fontFamily=Times New Roman;" parent="1" vertex="1">
          <mxGeometry x="-560" y="369.76" width="110" height="40" as="geometry" />
        </mxCell>
        <mxCell id="MyaQz2SFNksA92ETXeCg-3" style="edgeStyle=orthogonalEdgeStyle;shape=connector;rounded=0;orthogonalLoop=1;jettySize=auto;html=1;exitX=0;exitY=0.5;exitDx=0;exitDy=0;strokeColor=default;align=center;verticalAlign=middle;fontFamily=Times New Roman;fontSize=11;fontColor=default;labelBackgroundColor=default;startFill=0;endArrow=none;" parent="1" edge="1">
          <mxGeometry relative="1" as="geometry">
            <mxPoint x="-760" y="389.92" as="targetPoint" />
            <mxPoint x="-620" y="389.32" as="sourcePoint" />
          </mxGeometry>
        </mxCell>
        <mxCell id="IIdklsZDRmUn1JEuDDiX-7" style="edgeStyle=orthogonalEdgeStyle;shape=connector;rounded=0;orthogonalLoop=1;jettySize=auto;html=1;exitX=0.25;exitY=0;exitDx=0;exitDy=0;strokeColor=default;align=center;verticalAlign=middle;fontFamily=Helvetica;fontSize=11;fontColor=default;labelBackgroundColor=default;startFill=0;endArrow=none;" parent="1" source="MyaQz2SFNksA92ETXeCg-4" edge="1">
          <mxGeometry relative="1" as="geometry">
            <mxPoint x="-700" y="160" as="targetPoint" />
            <Array as="points">
              <mxPoint x="-699" y="370" />
              <mxPoint x="-699" y="160" />
            </Array>
          </mxGeometry>
        </mxCell>
        <mxCell id="MyaQz2SFNksA92ETXeCg-4" value="Amministratore" style="whiteSpace=wrap;html=1;align=center;fontFamily=Times New Roman;" parent="1" vertex="1">
          <mxGeometry x="-730" y="370.4" width="110" height="40" as="geometry" />
        </mxCell>
        <mxCell id="MyaQz2SFNksA92ETXeCg-16" value="&lt;font&gt;Carta di&lt;br&gt;Credito&lt;/font&gt;" style="ellipse;whiteSpace=wrap;html=1;align=center;fontFamily=Times New Roman;" parent="1" vertex="1">
          <mxGeometry x="-460" y="283" width="100" height="40" as="geometry" />
        </mxCell>
        <mxCell id="MyaQz2SFNksA92ETXeCg-17" value="" style="ellipse;whiteSpace=wrap;html=1;aspect=fixed;fontFamily=Times New Roman;" parent="1" vertex="1">
          <mxGeometry x="-460" y="263" width="10" height="10" as="geometry" />
        </mxCell>
        <mxCell id="MyaQz2SFNksA92ETXeCg-18" value="" style="ellipse;whiteSpace=wrap;html=1;aspect=fixed;fontFamily=Times New Roman;" parent="1" vertex="1">
          <mxGeometry x="-430" y="263" width="10" height="10" as="geometry" />
        </mxCell>
        <mxCell id="MyaQz2SFNksA92ETXeCg-19" style="edgeStyle=orthogonalEdgeStyle;rounded=0;orthogonalLoop=1;jettySize=auto;html=1;exitX=0.5;exitY=1;exitDx=0;exitDy=0;entryX=0.05;entryY=0.25;entryDx=0;entryDy=0;entryPerimeter=0;endArrow=none;startFill=0;fontFamily=Times New Roman;" parent="1" source="MyaQz2SFNksA92ETXeCg-17" target="MyaQz2SFNksA92ETXeCg-16" edge="1">
          <mxGeometry relative="1" as="geometry" />
        </mxCell>
        <mxCell id="MyaQz2SFNksA92ETXeCg-20" style="edgeStyle=orthogonalEdgeStyle;rounded=0;orthogonalLoop=1;jettySize=auto;html=1;exitX=0.5;exitY=1;exitDx=0;exitDy=0;entryX=0.35;entryY=0.041;entryDx=0;entryDy=0;entryPerimeter=0;endArrow=none;startFill=0;fontFamily=Times New Roman;" parent="1" source="MyaQz2SFNksA92ETXeCg-18" target="MyaQz2SFNksA92ETXeCg-16" edge="1">
          <mxGeometry relative="1" as="geometry" />
        </mxCell>
        <mxCell id="MyaQz2SFNksA92ETXeCg-21" value="" style="ellipse;whiteSpace=wrap;html=1;aspect=fixed;fontFamily=Times New Roman;" parent="1" vertex="1">
          <mxGeometry x="-410" y="263" width="10" height="10" as="geometry" />
        </mxCell>
        <mxCell id="MyaQz2SFNksA92ETXeCg-22" value="" style="ellipse;whiteSpace=wrap;html=1;aspect=fixed;fontFamily=Times New Roman;" parent="1" vertex="1">
          <mxGeometry x="-370" y="263" width="10" height="10" as="geometry" />
        </mxCell>
        <mxCell id="MyaQz2SFNksA92ETXeCg-23" style="edgeStyle=orthogonalEdgeStyle;rounded=0;orthogonalLoop=1;jettySize=auto;html=1;exitX=0.5;exitY=1;exitDx=0;exitDy=0;entryX=0.55;entryY=0.003;entryDx=0;entryDy=0;entryPerimeter=0;endArrow=none;startFill=0;fontFamily=Times New Roman;" parent="1" source="MyaQz2SFNksA92ETXeCg-21" target="MyaQz2SFNksA92ETXeCg-16" edge="1">
          <mxGeometry relative="1" as="geometry" />
        </mxCell>
        <mxCell id="MyaQz2SFNksA92ETXeCg-24" value="&lt;font style=&quot;font-size: 10px;&quot;&gt;Intestatario&lt;/font&gt;" style="text;html=1;align=center;verticalAlign=middle;whiteSpace=wrap;rounded=0;fontFamily=Times New Roman;fontSize=12;fontColor=default;labelBackgroundColor=default;" parent="1" vertex="1">
          <mxGeometry x="-490" y="239.76" width="60" height="30" as="geometry" />
        </mxCell>
        <mxCell id="MyaQz2SFNksA92ETXeCg-25" value="&lt;font&gt;CVV&lt;/font&gt;" style="text;html=1;align=center;verticalAlign=middle;resizable=0;points=[];autosize=1;strokeColor=none;fillColor=none;fontFamily=Times New Roman;fontSize=10;fontColor=default;labelBackgroundColor=default;" parent="1" vertex="1">
          <mxGeometry x="-445" y="240" width="40" height="30" as="geometry" />
        </mxCell>
        <mxCell id="MyaQz2SFNksA92ETXeCg-26" value="&lt;font&gt;Numero&lt;/font&gt;" style="text;html=1;align=center;verticalAlign=middle;resizable=0;points=[];autosize=1;strokeColor=none;fillColor=none;fontFamily=Times New Roman;fontSize=10;fontColor=default;labelBackgroundColor=default;" parent="1" vertex="1">
          <mxGeometry x="-425" y="240" width="60" height="30" as="geometry" />
        </mxCell>
        <mxCell id="MyaQz2SFNksA92ETXeCg-27" value="&lt;font&gt;Data&lt;br&gt;Scadenza&lt;/font&gt;" style="text;html=1;align=center;verticalAlign=middle;resizable=0;points=[];autosize=1;strokeColor=none;fillColor=none;fontFamily=Times New Roman;fontSize=10;fontColor=default;labelBackgroundColor=default;" parent="1" vertex="1">
          <mxGeometry x="-380" y="230" width="60" height="40" as="geometry" />
        </mxCell>
        <mxCell id="MyaQz2SFNksA92ETXeCg-28" value="" style="endArrow=none;html=1;rounded=0;strokeColor=default;align=center;verticalAlign=middle;fontFamily=Times New Roman;fontSize=11;fontColor=default;labelBackgroundColor=default;edgeStyle=orthogonalEdgeStyle;" parent="1" edge="1">
          <mxGeometry width="50" height="50" relative="1" as="geometry">
            <mxPoint x="-420" y="370" as="sourcePoint" />
            <mxPoint x="-420" y="330" as="targetPoint" />
          </mxGeometry>
        </mxCell>
        <mxCell id="MyaQz2SFNksA92ETXeCg-29" value="&lt;font&gt;(1,n)&lt;/font&gt;" style="text;html=1;align=center;verticalAlign=middle;resizable=0;points=[];autosize=1;strokeColor=none;fillColor=none;fontFamily=Times New Roman;fontSize=12;fontColor=default;labelBackgroundColor=default;" parent="1" vertex="1">
          <mxGeometry x="-450" y="389.76" width="50" height="30" as="geometry" />
        </mxCell>
        <mxCell id="MyaQz2SFNksA92ETXeCg-30" value="" style="ellipse;whiteSpace=wrap;html=1;aspect=fixed;fontFamily=Times New Roman;" parent="1" vertex="1">
          <mxGeometry x="-480" y="440" width="10" height="10" as="geometry" />
        </mxCell>
        <mxCell id="MyaQz2SFNksA92ETXeCg-31" value="" style="ellipse;whiteSpace=wrap;html=1;aspect=fixed;fontFamily=Times New Roman;" parent="1" vertex="1">
          <mxGeometry x="-85" y="336.04" width="10" height="10" as="geometry" />
        </mxCell>
        <mxCell id="MyaQz2SFNksA92ETXeCg-32" value="" style="ellipse;whiteSpace=wrap;html=1;aspect=fixed;fontFamily=Times New Roman;" parent="1" vertex="1">
          <mxGeometry x="-530" y="440" width="10" height="10" as="geometry" />
        </mxCell>
        <mxCell id="MyaQz2SFNksA92ETXeCg-33" value="" style="ellipse;whiteSpace=wrap;html=1;aspect=fixed;fillColor=#FFFFFF;fontFamily=Times New Roman;" parent="1" vertex="1">
          <mxGeometry x="-550" y="440" width="10" height="10" as="geometry" />
        </mxCell>
        <mxCell id="MyaQz2SFNksA92ETXeCg-34" style="edgeStyle=orthogonalEdgeStyle;shape=connector;rounded=0;orthogonalLoop=1;jettySize=auto;html=1;exitX=0.5;exitY=0;exitDx=0;exitDy=0;entryX=0.135;entryY=0.99;entryDx=0;entryDy=0;entryPerimeter=0;strokeColor=default;align=center;verticalAlign=middle;fontFamily=Times New Roman;fontSize=7;fontColor=default;labelBackgroundColor=default;autosize=1;resizable=0;startFill=0;endArrow=none;" parent="1" source="MyaQz2SFNksA92ETXeCg-33" target="MyaQz2SFNksA92ETXeCg-1" edge="1">
          <mxGeometry relative="1" as="geometry" />
        </mxCell>
        <mxCell id="MyaQz2SFNksA92ETXeCg-35" value="&lt;font&gt;CF&lt;/font&gt;" style="text;html=1;align=center;verticalAlign=middle;resizable=0;points=[];autosize=1;strokeColor=none;fillColor=none;fontFamily=Times New Roman;fontSize=12;fontColor=default;labelBackgroundColor=default;" parent="1" vertex="1">
          <mxGeometry x="-570" y="450" width="40" height="30" as="geometry" />
        </mxCell>
        <mxCell id="MyaQz2SFNksA92ETXeCg-36" style="edgeStyle=orthogonalEdgeStyle;shape=connector;rounded=0;orthogonalLoop=1;jettySize=auto;html=1;exitX=0.5;exitY=0;exitDx=0;exitDy=0;entryX=0.314;entryY=0.988;entryDx=0;entryDy=0;entryPerimeter=0;strokeColor=default;align=center;verticalAlign=middle;fontFamily=Times New Roman;fontSize=7;fontColor=default;labelBackgroundColor=default;autosize=1;resizable=0;startFill=0;endArrow=none;" parent="1" source="MyaQz2SFNksA92ETXeCg-32" target="MyaQz2SFNksA92ETXeCg-1" edge="1">
          <mxGeometry relative="1" as="geometry" />
        </mxCell>
        <mxCell id="MyaQz2SFNksA92ETXeCg-37" value="&lt;font&gt;Data&lt;br&gt;Nascita&lt;/font&gt;" style="text;html=1;align=center;verticalAlign=middle;resizable=0;points=[];autosize=1;strokeColor=none;fillColor=none;fontFamily=Times New Roman;fontSize=12;fontColor=default;labelBackgroundColor=default;" parent="1" vertex="1">
          <mxGeometry x="-540" y="445" width="60" height="40" as="geometry" />
        </mxCell>
        <mxCell id="MyaQz2SFNksA92ETXeCg-38" value="&lt;font&gt;Citta&lt;br&gt;Nascita&lt;/font&gt;" style="text;html=1;align=center;verticalAlign=middle;resizable=0;points=[];autosize=1;strokeColor=none;fillColor=none;fontFamily=Times New Roman;fontSize=12;fontColor=default;labelBackgroundColor=default;" parent="1" vertex="1">
          <mxGeometry x="-495" y="445" width="60" height="40" as="geometry" />
        </mxCell>
        <mxCell id="MyaQz2SFNksA92ETXeCg-39" value="Nome" style="text;html=1;align=center;verticalAlign=middle;resizable=0;points=[];autosize=1;strokeColor=none;fillColor=none;fontFamily=Times New Roman;fontSize=12;fontColor=default;labelBackgroundColor=default;" parent="1" vertex="1">
          <mxGeometry x="-630" y="380" width="50" height="30" as="geometry" />
        </mxCell>
        <mxCell id="MyaQz2SFNksA92ETXeCg-40" style="edgeStyle=orthogonalEdgeStyle;shape=connector;rounded=0;orthogonalLoop=1;jettySize=auto;html=1;exitX=1;exitY=0.5;exitDx=0;exitDy=0;entryX=0;entryY=0.75;entryDx=0;entryDy=0;strokeColor=default;align=center;verticalAlign=middle;fontFamily=Times New Roman;fontSize=11;fontColor=default;labelBackgroundColor=default;startFill=0;endArrow=none;" parent="1" source="MyaQz2SFNksA92ETXeCg-41" target="MyaQz2SFNksA92ETXeCg-1" edge="1">
          <mxGeometry relative="1" as="geometry" />
        </mxCell>
        <mxCell id="MyaQz2SFNksA92ETXeCg-41" value="" style="ellipse;whiteSpace=wrap;html=1;aspect=fixed;fontFamily=Times New Roman;" parent="1" vertex="1">
          <mxGeometry x="-585" y="399.76" width="10" height="10" as="geometry" />
        </mxCell>
        <mxCell id="MyaQz2SFNksA92ETXeCg-42" value="Cognome" style="text;html=1;align=center;verticalAlign=middle;resizable=0;points=[];autosize=1;strokeColor=none;fillColor=none;fontFamily=Times New Roman;fontSize=12;fontColor=default;labelBackgroundColor=default;" parent="1" vertex="1">
          <mxGeometry x="-630" y="404.76" width="70" height="30" as="geometry" />
        </mxCell>
        <mxCell id="MyaQz2SFNksA92ETXeCg-43" style="edgeStyle=orthogonalEdgeStyle;shape=connector;rounded=0;orthogonalLoop=1;jettySize=auto;html=1;exitX=0.5;exitY=0;exitDx=0;exitDy=0;entryX=0.864;entryY=1.002;entryDx=0;entryDy=0;entryPerimeter=0;strokeColor=default;align=center;verticalAlign=middle;fontFamily=Times New Roman;fontSize=11;fontColor=default;labelBackgroundColor=default;startFill=0;endArrow=none;" parent="1" source="MyaQz2SFNksA92ETXeCg-30" edge="1">
          <mxGeometry relative="1" as="geometry">
            <mxPoint x="-474.9599999999999" y="409.84000000000003" as="targetPoint" />
          </mxGeometry>
        </mxCell>
        <mxCell id="MyaQz2SFNksA92ETXeCg-44" value="" style="ellipse;whiteSpace=wrap;html=1;aspect=fixed;fontFamily=Times New Roman;" parent="1" vertex="1">
          <mxGeometry x="-585" y="379.76" width="10" height="10" as="geometry" />
        </mxCell>
        <mxCell id="MyaQz2SFNksA92ETXeCg-45" style="edgeStyle=orthogonalEdgeStyle;shape=connector;rounded=0;orthogonalLoop=1;jettySize=auto;html=1;exitX=1;exitY=0.5;exitDx=0;exitDy=0;entryX=0.002;entryY=0.224;entryDx=0;entryDy=0;entryPerimeter=0;strokeColor=default;align=center;verticalAlign=middle;fontFamily=Times New Roman;fontSize=11;fontColor=default;labelBackgroundColor=default;startFill=0;endArrow=none;" parent="1" source="MyaQz2SFNksA92ETXeCg-44" target="MyaQz2SFNksA92ETXeCg-1" edge="1">
          <mxGeometry relative="1" as="geometry" />
        </mxCell>
        <mxCell id="MyaQz2SFNksA92ETXeCg-46" value="&lt;font style=&quot;&quot;&gt;Formulare&lt;/font&gt;" style="shape=rhombus;perimeter=rhombusPerimeter;whiteSpace=wrap;html=1;align=center;fontFamily=Times New Roman;" parent="1" vertex="1">
          <mxGeometry x="-420" y="365" width="120" height="60" as="geometry" />
        </mxCell>
        <mxCell id="MyaQz2SFNksA92ETXeCg-47" style="edgeStyle=orthogonalEdgeStyle;shape=connector;rounded=0;orthogonalLoop=1;jettySize=auto;html=1;exitX=0;exitY=0.5;exitDx=0;exitDy=0;entryX=0.998;entryY=0.615;entryDx=0;entryDy=0;entryPerimeter=0;strokeColor=default;align=center;verticalAlign=middle;fontFamily=Times New Roman;fontSize=11;fontColor=default;labelBackgroundColor=default;startFill=0;endArrow=none;" parent="1" source="MyaQz2SFNksA92ETXeCg-46" target="MyaQz2SFNksA92ETXeCg-1" edge="1">
          <mxGeometry relative="1" as="geometry" />
        </mxCell>
        <mxCell id="MyaQz2SFNksA92ETXeCg-48" style="edgeStyle=orthogonalEdgeStyle;shape=connector;rounded=0;orthogonalLoop=1;jettySize=auto;html=1;exitX=0.5;exitY=1;exitDx=0;exitDy=0;entryX=0.5;entryY=0;entryDx=0;entryDy=0;strokeColor=default;align=center;verticalAlign=middle;fontFamily=Times New Roman;fontSize=11;fontColor=default;labelBackgroundColor=default;startFill=0;endArrow=none;" parent="1" source="MyaQz2SFNksA92ETXeCg-49" target="MyaQz2SFNksA92ETXeCg-58" edge="1">
          <mxGeometry relative="1" as="geometry" />
        </mxCell>
        <mxCell id="MyaQz2SFNksA92ETXeCg-49" value="&lt;font&gt;Offerte&lt;/font&gt;" style="whiteSpace=wrap;html=1;align=center;fontFamily=Times New Roman;" parent="1" vertex="1">
          <mxGeometry x="-170" y="369.76" width="120" height="40" as="geometry" />
        </mxCell>
        <mxCell id="MyaQz2SFNksA92ETXeCg-51" value="" style="ellipse;whiteSpace=wrap;html=1;aspect=fixed;fontFamily=Times New Roman;" parent="1" vertex="1">
          <mxGeometry x="-140" y="336.03999999999996" width="10" height="10" as="geometry" />
        </mxCell>
        <mxCell id="MyaQz2SFNksA92ETXeCg-52" value="&lt;font&gt;Valore&lt;br&gt;Effettivo&lt;/font&gt;" style="text;html=1;align=center;verticalAlign=middle;resizable=0;points=[];autosize=1;strokeColor=none;fillColor=none;fontFamily=Times New Roman;fontSize=12;fontColor=default;labelBackgroundColor=default;" parent="1" vertex="1">
          <mxGeometry x="-180" y="299.76" width="70" height="40" as="geometry" />
        </mxCell>
        <mxCell id="MyaQz2SFNksA92ETXeCg-53" value="" style="ellipse;whiteSpace=wrap;html=1;aspect=fixed;fontFamily=Times New Roman;" parent="1" vertex="1">
          <mxGeometry x="-140" y="725" width="10" height="10" as="geometry" />
        </mxCell>
        <mxCell id="MyaQz2SFNksA92ETXeCg-54" style="edgeStyle=orthogonalEdgeStyle;shape=connector;rounded=0;orthogonalLoop=1;jettySize=auto;html=1;exitX=0.5;exitY=1;exitDx=0;exitDy=0;strokeColor=default;align=center;verticalAlign=middle;fontFamily=Times New Roman;fontSize=11;fontColor=default;labelBackgroundColor=default;startFill=0;endArrow=none;" parent="1" source="MyaQz2SFNksA92ETXeCg-55" edge="1">
          <mxGeometry relative="1" as="geometry">
            <mxPoint x="-760" y="700" as="targetPoint" />
          </mxGeometry>
        </mxCell>
        <mxCell id="MyaQz2SFNksA92ETXeCg-55" value="Creazione" style="shape=rhombus;perimeter=rhombusPerimeter;whiteSpace=wrap;html=1;align=center;fontFamily=Times New Roman;" parent="1" vertex="1">
          <mxGeometry x="-820" y="490" width="120" height="60" as="geometry" />
        </mxCell>
        <mxCell id="MyaQz2SFNksA92ETXeCg-56" value="" style="endArrow=none;html=1;rounded=0;strokeColor=default;align=center;verticalAlign=middle;fontFamily=Times New Roman;fontSize=11;fontColor=default;labelBackgroundColor=default;edgeStyle=orthogonalEdgeStyle;exitX=0.5;exitY=0;exitDx=0;exitDy=0;" parent="1" source="MyaQz2SFNksA92ETXeCg-55" edge="1">
          <mxGeometry width="50" height="50" relative="1" as="geometry">
            <mxPoint x="-760" y="410" as="sourcePoint" />
            <mxPoint x="-760" y="390" as="targetPoint" />
          </mxGeometry>
        </mxCell>
        <mxCell id="MyaQz2SFNksA92ETXeCg-58" value="&lt;font&gt;riferimento&lt;/font&gt;" style="shape=rhombus;perimeter=rhombusPerimeter;whiteSpace=wrap;html=1;align=center;fontFamily=Times New Roman;" parent="1" vertex="1">
          <mxGeometry x="-170" y="490" width="120" height="60" as="geometry" />
        </mxCell>
        <mxCell id="BQlBZ9qGdTyEkBlSmbAt-3" style="edgeStyle=orthogonalEdgeStyle;shape=connector;rounded=0;orthogonalLoop=1;jettySize=auto;html=1;exitX=0.25;exitY=0;exitDx=0;exitDy=0;entryX=0.5;entryY=1;entryDx=0;entryDy=0;strokeColor=default;align=center;verticalAlign=middle;fontFamily=Helvetica;fontSize=11;fontColor=default;labelBackgroundColor=default;startFill=0;endArrow=none;" parent="1" source="MyaQz2SFNksA92ETXeCg-59" target="MyaQz2SFNksA92ETXeCg-53" edge="1">
          <mxGeometry relative="1" as="geometry" />
        </mxCell>
        <mxCell id="MyaQz2SFNksA92ETXeCg-59" value="&lt;font&gt;Asta&lt;/font&gt;" style="whiteSpace=wrap;html=1;align=center;fontFamily=Times New Roman;" parent="1" vertex="1">
          <mxGeometry x="-170" y="755" width="130" height="40" as="geometry" />
        </mxCell>
        <mxCell id="MyaQz2SFNksA92ETXeCg-60" value="&lt;font&gt;Importo&lt;/font&gt;&lt;div&gt;&lt;font&gt;Offerta max&lt;/font&gt;&lt;/div&gt;" style="text;html=1;align=center;verticalAlign=middle;resizable=0;points=[];autosize=1;strokeColor=none;fillColor=none;fontFamily=Times New Roman;fontSize=12;fontColor=default;labelBackgroundColor=default;" parent="1" vertex="1">
          <mxGeometry x="-100" y="820" width="80" height="40" as="geometry" />
        </mxCell>
        <mxCell id="MyaQz2SFNksA92ETXeCg-62" value="" style="ellipse;whiteSpace=wrap;html=1;aspect=fixed;fontFamily=Times New Roman;" parent="1" vertex="1">
          <mxGeometry x="-160" y="815" width="10" height="10" as="geometry" />
        </mxCell>
        <mxCell id="MyaQz2SFNksA92ETXeCg-63" value="" style="ellipse;whiteSpace=wrap;html=1;aspect=fixed;fontFamily=Times New Roman;" parent="1" vertex="1">
          <mxGeometry x="-115" y="815" width="10" height="10" as="geometry" />
        </mxCell>
        <mxCell id="MyaQz2SFNksA92ETXeCg-65" value="" style="ellipse;whiteSpace=wrap;html=1;aspect=fixed;fontFamily=Times New Roman;direction=west;" parent="1" vertex="1">
          <mxGeometry x="-60" y="815" width="10" height="10" as="geometry" />
        </mxCell>
        <mxCell id="MyaQz2SFNksA92ETXeCg-72" value="&lt;font&gt;Numero&lt;br&gt;Offerte&lt;/font&gt;" style="text;html=1;align=center;verticalAlign=middle;resizable=0;points=[];autosize=1;strokeColor=none;fillColor=none;fontFamily=Times New Roman;fontSize=12;fontColor=default;labelBackgroundColor=default;" parent="1" vertex="1">
          <mxGeometry x="-190" y="820" width="60" height="40" as="geometry" />
        </mxCell>
        <mxCell id="MyaQz2SFNksA92ETXeCg-73" value="&lt;font&gt;Tempo&lt;/font&gt;&lt;div&gt;&lt;font&gt;Mancante&lt;/font&gt;&lt;/div&gt;" style="text;html=1;align=center;verticalAlign=middle;resizable=0;points=[];autosize=1;strokeColor=none;fillColor=none;fontFamily=Times New Roman;fontSize=12;fontColor=default;labelBackgroundColor=default;" parent="1" vertex="1">
          <mxGeometry x="-150" y="820" width="70" height="40" as="geometry" />
        </mxCell>
        <mxCell id="MyaQz2SFNksA92ETXeCg-74" style="edgeStyle=orthogonalEdgeStyle;rounded=0;orthogonalLoop=1;jettySize=auto;html=1;exitX=0;exitY=0.5;exitDx=0;exitDy=0;endArrow=none;startFill=0;fontFamily=Times New Roman;" parent="1" source="MyaQz2SFNksA92ETXeCg-81" edge="1">
          <mxGeometry relative="1" as="geometry">
            <mxPoint x="-465" y="775" as="targetPoint" />
          </mxGeometry>
        </mxCell>
        <mxCell id="MyaQz2SFNksA92ETXeCg-80" style="edgeStyle=orthogonalEdgeStyle;shape=connector;rounded=0;orthogonalLoop=1;jettySize=auto;html=1;exitX=1;exitY=0.5;exitDx=0;exitDy=0;entryX=0;entryY=0.5;entryDx=0;entryDy=0;strokeColor=default;align=center;verticalAlign=middle;fontFamily=Times New Roman;fontSize=11;fontColor=default;labelBackgroundColor=default;startFill=0;endArrow=none;" parent="1" target="MyaQz2SFNksA92ETXeCg-59" edge="1">
          <mxGeometry relative="1" as="geometry">
            <mxPoint x="-320" y="775" as="sourcePoint" />
          </mxGeometry>
        </mxCell>
        <mxCell id="MyaQz2SFNksA92ETXeCg-81" value="Relativa" style="shape=rhombus;perimeter=rhombusPerimeter;whiteSpace=wrap;html=1;align=center;fontColor=#000000;fontFamily=Times New Roman;" parent="1" vertex="1">
          <mxGeometry x="-390" y="741" width="120" height="68" as="geometry" />
        </mxCell>
        <mxCell id="MyaQz2SFNksA92ETXeCg-82" style="edgeStyle=orthogonalEdgeStyle;shape=connector;rounded=0;orthogonalLoop=1;jettySize=auto;html=1;strokeColor=default;align=center;verticalAlign=middle;fontFamily=Times New Roman;fontSize=11;fontColor=default;labelBackgroundColor=default;startFill=0;endArrow=none;exitX=-0.003;exitY=0.873;exitDx=0;exitDy=0;exitPerimeter=0;" parent="1" source="yL2FJkh1uTcGQt0XIGCP-5" edge="1">
          <mxGeometry relative="1" as="geometry">
            <mxPoint x="-760" y="700" as="targetPoint" />
            <mxPoint x="-560" y="795" as="sourcePoint" />
            <Array as="points">
              <mxPoint x="-760" y="795" />
            </Array>
          </mxGeometry>
        </mxCell>
        <mxCell id="MyaQz2SFNksA92ETXeCg-94" value="" style="edgeStyle=orthogonalEdgeStyle;elbow=vertical;endArrow=none;html=1;curved=1;rounded=0;endSize=8;startSize=8;strokeColor=default;align=center;verticalAlign=middle;fontFamily=Times New Roman;fontSize=7;fontColor=default;labelBackgroundColor=default;autosize=1;resizable=0;startFill=0;exitDx=0;exitDy=0;exitPerimeter=0;" parent="1" edge="1">
          <mxGeometry width="50" height="50" relative="1" as="geometry">
            <mxPoint x="-305" y="810" as="sourcePoint" />
            <mxPoint x="-305" y="809" as="targetPoint" />
          </mxGeometry>
        </mxCell>
        <mxCell id="MyaQz2SFNksA92ETXeCg-96" value="" style="edgeStyle=none;orthogonalLoop=1;jettySize=auto;html=1;rounded=0;strokeColor=default;align=center;verticalAlign=middle;fontFamily=Times New Roman;fontSize=11;fontColor=default;labelBackgroundColor=default;startFill=0;endArrow=none;exitX=0.4;exitY=0.991;exitDx=0;exitDy=0;exitPerimeter=0;" parent="1" source="MyaQz2SFNksA92ETXeCg-16" edge="1">
          <mxGeometry width="100" relative="1" as="geometry">
            <mxPoint x="-390" y="309.67" as="sourcePoint" />
            <mxPoint x="-420" y="330" as="targetPoint" />
            <Array as="points" />
          </mxGeometry>
        </mxCell>
        <mxCell id="MyaQz2SFNksA92ETXeCg-97" value="" style="edgeStyle=none;orthogonalLoop=1;jettySize=auto;html=1;rounded=0;strokeColor=default;align=center;verticalAlign=middle;fontFamily=Times New Roman;fontSize=11;fontColor=default;labelBackgroundColor=default;startFill=0;endArrow=none;entryX=1;entryY=0.25;entryDx=0;entryDy=0;" parent="1" target="MyaQz2SFNksA92ETXeCg-1" edge="1">
          <mxGeometry width="100" relative="1" as="geometry">
            <mxPoint x="-419.87" y="370" as="sourcePoint" />
            <mxPoint x="-420" y="379.64" as="targetPoint" />
            <Array as="points">
              <mxPoint x="-420" y="380" />
            </Array>
          </mxGeometry>
        </mxCell>
        <mxCell id="WzV34CDxdVOIjTIPZ7gJ-9" style="edgeStyle=orthogonalEdgeStyle;rounded=0;orthogonalLoop=1;jettySize=auto;html=1;exitX=0.5;exitY=1;exitDx=0;exitDy=0;entryX=0.5;entryY=0;entryDx=0;entryDy=0;endArrow=none;startFill=0;" edge="1" parent="1" source="MyaQz2SFNksA92ETXeCg-98" target="WzV34CDxdVOIjTIPZ7gJ-3">
          <mxGeometry relative="1" as="geometry" />
        </mxCell>
        <mxCell id="MyaQz2SFNksA92ETXeCg-98" value="Posseduto" style="shape=rhombus;perimeter=rhombusPerimeter;whiteSpace=wrap;html=1;align=center;fontFamily=Times New Roman;" parent="1" vertex="1">
          <mxGeometry x="-550" y="480" width="120" height="60" as="geometry" />
        </mxCell>
        <mxCell id="MyaQz2SFNksA92ETXeCg-99" style="edgeStyle=orthogonalEdgeStyle;shape=connector;rounded=0;orthogonalLoop=1;jettySize=auto;html=1;exitX=0.5;exitY=0;exitDx=0;exitDy=0;strokeColor=default;align=center;verticalAlign=middle;fontFamily=Times New Roman;fontSize=11;fontColor=default;labelBackgroundColor=default;startFill=0;endArrow=none;" parent="1" source="MyaQz2SFNksA92ETXeCg-98" edge="1">
          <mxGeometry relative="1" as="geometry">
            <mxPoint x="-490" y="410" as="targetPoint" />
          </mxGeometry>
        </mxCell>
        <mxCell id="zFlmvIqiSwW0mTtG42AD-25" style="edgeStyle=orthogonalEdgeStyle;rounded=0;orthogonalLoop=1;jettySize=auto;html=1;exitX=1;exitY=0.5;exitDx=0;exitDy=0;entryX=0;entryY=0.5;entryDx=0;entryDy=0;endArrow=none;startFill=0;" parent="1" source="MyaQz2SFNksA92ETXeCg-101" target="MyaQz2SFNksA92ETXeCg-103" edge="1">
          <mxGeometry relative="1" as="geometry" />
        </mxCell>
        <mxCell id="MyaQz2SFNksA92ETXeCg-101" value="Appartenenza" style="shape=rhombus;perimeter=rhombusPerimeter;whiteSpace=wrap;html=1;align=center;fontFamily=Times New Roman;" parent="1" vertex="1">
          <mxGeometry x="-570" y="913" width="120" height="60" as="geometry" />
        </mxCell>
        <mxCell id="MyaQz2SFNksA92ETXeCg-103" value="Categoria&amp;nbsp;" style="whiteSpace=wrap;html=1;align=center;fontFamily=Times New Roman;" parent="1" vertex="1">
          <mxGeometry x="-320.05" y="923" width="100" height="40" as="geometry" />
        </mxCell>
        <mxCell id="zFlmvIqiSwW0mTtG42AD-1" style="edgeStyle=orthogonalEdgeStyle;rounded=0;orthogonalLoop=1;jettySize=auto;html=1;exitX=0.5;exitY=1;exitDx=0;exitDy=0;entryX=0.25;entryY=0;entryDx=0;entryDy=0;endArrow=none;startFill=0;" parent="1" source="MyaQz2SFNksA92ETXeCg-104" target="MyaQz2SFNksA92ETXeCg-103" edge="1">
          <mxGeometry relative="1" as="geometry" />
        </mxCell>
        <mxCell id="MyaQz2SFNksA92ETXeCg-104" value="" style="ellipse;whiteSpace=wrap;html=1;aspect=fixed;fillColor=#000000;fontFamily=Times New Roman;" parent="1" vertex="1">
          <mxGeometry x="-300" y="895" width="10" height="10" as="geometry" />
        </mxCell>
        <mxCell id="MyaQz2SFNksA92ETXeCg-105" value="&lt;font&gt;Nome Categoria&lt;/font&gt;" style="text;html=1;align=center;verticalAlign=middle;resizable=0;points=[];autosize=1;strokeColor=none;fillColor=none;fontFamily=Times New Roman;fontSize=12;fontColor=default;labelBackgroundColor=default;" parent="1" vertex="1">
          <mxGeometry x="-350" y="870" width="100" height="30" as="geometry" />
        </mxCell>
        <mxCell id="MyaQz2SFNksA92ETXeCg-106" value="(1,n)" style="text;html=1;align=center;verticalAlign=middle;resizable=0;points=[];autosize=1;strokeColor=none;fillColor=none;fontFamily=Times New Roman;fontSize=12;fontColor=default;labelBackgroundColor=default;" parent="1" vertex="1">
          <mxGeometry x="-370.05" y="913" width="50" height="30" as="geometry" />
        </mxCell>
        <mxCell id="MyaQz2SFNksA92ETXeCg-108" style="edgeStyle=orthogonalEdgeStyle;shape=connector;rounded=0;orthogonalLoop=1;jettySize=auto;html=1;exitX=0.5;exitY=0;exitDx=0;exitDy=0;strokeColor=default;align=center;verticalAlign=middle;fontFamily=Times New Roman;fontSize=11;fontColor=default;labelBackgroundColor=default;startFill=0;endArrow=none;entryX=0.301;entryY=0.969;entryDx=0;entryDy=0;entryPerimeter=0;" parent="1" source="MyaQz2SFNksA92ETXeCg-101" target="yL2FJkh1uTcGQt0XIGCP-5" edge="1">
          <mxGeometry relative="1" as="geometry">
            <mxPoint x="-510" y="845" as="targetPoint" />
          </mxGeometry>
        </mxCell>
        <mxCell id="MyaQz2SFNksA92ETXeCg-109" value="&lt;font&gt;(1,n)&lt;/font&gt;" style="text;html=1;align=center;verticalAlign=middle;resizable=0;points=[];autosize=1;strokeColor=none;fillColor=none;fontFamily=Times New Roman;fontSize=12;fontColor=default;labelBackgroundColor=default;" parent="1" vertex="1">
          <mxGeometry x="-463" y="354.76" width="50" height="30" as="geometry" />
        </mxCell>
        <mxCell id="MyaQz2SFNksA92ETXeCg-110" style="edgeStyle=orthogonalEdgeStyle;shape=connector;rounded=0;orthogonalLoop=1;jettySize=auto;html=1;exitX=1;exitY=0.5;exitDx=0;exitDy=0;entryX=-0.004;entryY=0.63;entryDx=0;entryDy=0;entryPerimeter=0;strokeColor=default;align=center;verticalAlign=middle;fontFamily=Times New Roman;fontSize=11;fontColor=default;labelBackgroundColor=default;startFill=0;endArrow=none;" parent="1" source="MyaQz2SFNksA92ETXeCg-46" target="MyaQz2SFNksA92ETXeCg-49" edge="1">
          <mxGeometry relative="1" as="geometry" />
        </mxCell>
        <mxCell id="MyaQz2SFNksA92ETXeCg-111" value="&lt;font&gt;(0,1)&lt;/font&gt;" style="text;html=1;align=center;verticalAlign=middle;resizable=0;points=[];autosize=1;strokeColor=none;fillColor=none;fontFamily=Times New Roman;fontSize=12;fontColor=default;labelBackgroundColor=default;" parent="1" vertex="1">
          <mxGeometry x="-250" y="370.4" width="50" height="30" as="geometry" />
        </mxCell>
        <mxCell id="MyaQz2SFNksA92ETXeCg-113" value="&lt;font&gt;(1,n)&lt;/font&gt;" style="text;html=1;align=center;verticalAlign=middle;resizable=0;points=[];autosize=1;strokeColor=none;fillColor=none;fontFamily=Times New Roman;fontSize=11;fontColor=default;labelBackgroundColor=default;" parent="1" vertex="1">
          <mxGeometry x="-115" y="730" width="40" height="30" as="geometry" />
        </mxCell>
        <mxCell id="MyaQz2SFNksA92ETXeCg-114" value="" style="ellipse;whiteSpace=wrap;html=1;aspect=fixed;fontFamily=Times New Roman;" parent="1" vertex="1">
          <mxGeometry x="-70" y="730" width="10" height="10" as="geometry" />
        </mxCell>
        <mxCell id="MyaQz2SFNksA92ETXeCg-117" value="&lt;font&gt;Durata&lt;/font&gt;" style="text;html=1;align=center;verticalAlign=middle;resizable=0;points=[];autosize=1;strokeColor=none;fillColor=none;fontFamily=Times New Roman;fontSize=12;fontColor=default;labelBackgroundColor=default;" parent="1" vertex="1">
          <mxGeometry x="-170" y="700" width="60" height="30" as="geometry" />
        </mxCell>
        <mxCell id="MyaQz2SFNksA92ETXeCg-118" value="&lt;font&gt;Data Inizio&lt;/font&gt;" style="text;html=1;align=center;verticalAlign=middle;resizable=0;points=[];autosize=1;strokeColor=none;fillColor=none;fontFamily=Times New Roman;fontSize=12;fontColor=default;labelBackgroundColor=default;" parent="1" vertex="1">
          <mxGeometry x="-100" y="705" width="80" height="30" as="geometry" />
        </mxCell>
        <mxCell id="MyaQz2SFNksA92ETXeCg-119" value="&lt;font&gt;(1,1)&lt;/font&gt;" style="text;html=1;align=center;verticalAlign=middle;resizable=0;points=[];autosize=1;strokeColor=none;fillColor=none;fontFamily=Times New Roman;fontSize=11;fontColor=default;labelBackgroundColor=default;" parent="1" vertex="1">
          <mxGeometry x="-205" y="750" width="40" height="30" as="geometry" />
        </mxCell>
        <mxCell id="MyaQz2SFNksA92ETXeCg-120" style="edgeStyle=orthogonalEdgeStyle;shape=connector;rounded=0;orthogonalLoop=1;jettySize=auto;html=1;exitX=0.5;exitY=1;exitDx=0;exitDy=0;strokeColor=default;align=center;verticalAlign=middle;fontFamily=Times New Roman;fontSize=11;fontColor=default;labelBackgroundColor=default;startFill=0;endArrow=none;" parent="1" source="MyaQz2SFNksA92ETXeCg-121" edge="1">
          <mxGeometry relative="1" as="geometry">
            <mxPoint x="-215.06040268456377" y="795" as="targetPoint" />
          </mxGeometry>
        </mxCell>
        <mxCell id="MyaQz2SFNksA92ETXeCg-121" value="" style="ellipse;whiteSpace=wrap;html=1;aspect=fixed;fillColor=#000000;fontFamily=Times New Roman;" parent="1" vertex="1">
          <mxGeometry x="-220" y="745" width="10" height="10" as="geometry" />
        </mxCell>
        <mxCell id="MyaQz2SFNksA92ETXeCg-126" value="(1,n)" style="text;html=1;align=center;verticalAlign=middle;resizable=0;points=[];autosize=1;strokeColor=none;fillColor=none;fontFamily=Times New Roman;fontSize=12;fontColor=default;labelBackgroundColor=default;" parent="1" vertex="1">
          <mxGeometry x="-775" y="365.4" width="50" height="30" as="geometry" />
        </mxCell>
        <mxCell id="MyaQz2SFNksA92ETXeCg-127" style="edgeStyle=orthogonalEdgeStyle;shape=connector;rounded=0;orthogonalLoop=1;jettySize=auto;html=1;exitX=0.5;exitY=1;exitDx=0;exitDy=0;strokeColor=default;align=center;verticalAlign=middle;fontFamily=Times New Roman;fontSize=11;fontColor=default;labelBackgroundColor=default;startFill=0;endArrow=none;entryX=0.542;entryY=-0.01;entryDx=0;entryDy=0;entryPerimeter=0;" parent="1" source="MyaQz2SFNksA92ETXeCg-31" edge="1">
          <mxGeometry relative="1" as="geometry">
            <mxPoint x="-79.96000000000004" y="370.40000000000003" as="targetPoint" />
          </mxGeometry>
        </mxCell>
        <mxCell id="MyaQz2SFNksA92ETXeCg-128" value="&lt;font&gt;Offerta massima&lt;br&gt;&lt;/font&gt;" style="text;html=1;align=center;verticalAlign=middle;resizable=0;points=[];autosize=1;strokeColor=none;fillColor=none;fontFamily=Times New Roman;fontSize=12;fontColor=default;labelBackgroundColor=default;" parent="1" vertex="1">
          <mxGeometry x="-130" y="309.76" width="100" height="30" as="geometry" />
        </mxCell>
        <mxCell id="MyaQz2SFNksA92ETXeCg-129" value="&lt;font&gt;(0,1)&lt;/font&gt;" style="text;html=1;align=center;verticalAlign=middle;resizable=0;points=[];autosize=1;strokeColor=none;fillColor=none;fontSize=12;fontFamily=Times New Roman;" parent="1" vertex="1">
          <mxGeometry x="-90" y="345" width="50" height="30" as="geometry" />
        </mxCell>
        <mxCell id="MyaQz2SFNksA92ETXeCg-131" style="edgeStyle=orthogonalEdgeStyle;rounded=0;orthogonalLoop=1;jettySize=auto;html=1;exitX=0.5;exitY=1;exitDx=0;exitDy=0;entryX=0.947;entryY=0.288;entryDx=0;entryDy=0;entryPerimeter=0;endArrow=none;startFill=0;fontFamily=Times New Roman;" parent="1" source="MyaQz2SFNksA92ETXeCg-22" target="MyaQz2SFNksA92ETXeCg-16" edge="1">
          <mxGeometry relative="1" as="geometry" />
        </mxCell>
        <mxCell id="-sRvrJZlTzUXNJ3EfaBo-8" value="" style="ellipse;whiteSpace=wrap;html=1;aspect=fixed;fontFamily=Times New Roman;fillColor=#000000;" parent="1" vertex="1">
          <mxGeometry x="-130" y="344.76" width="10" height="10" as="geometry" />
        </mxCell>
        <mxCell id="MyaQz2SFNksA92ETXeCg-112" value="&lt;font&gt;(1,n)&lt;/font&gt;" style="text;html=1;align=center;verticalAlign=middle;resizable=0;points=[];autosize=1;strokeColor=none;fillColor=none;fontFamily=Times New Roman;fontSize=12;fontColor=default;labelBackgroundColor=default;" parent="1" vertex="1">
          <mxGeometry x="-120" y="404.76" width="50" height="30" as="geometry" />
        </mxCell>
        <mxCell id="l5-qMtQxf-NeuBGAWEjH-5" value="" style="endArrow=none;html=1;rounded=0;edgeStyle=orthogonalEdgeStyle;curved=1;" parent="1" edge="1">
          <mxGeometry width="50" height="50" relative="1" as="geometry">
            <mxPoint x="-130.0023076923078" y="350" as="sourcePoint" />
            <mxPoint x="-190.0023076923078" y="420" as="targetPoint" />
          </mxGeometry>
        </mxCell>
        <mxCell id="l5-qMtQxf-NeuBGAWEjH-14" value="&lt;font&gt;Nome utente&lt;/font&gt;" style="text;html=1;align=center;verticalAlign=middle;resizable=0;points=[];autosize=1;strokeColor=none;fillColor=none;fontSize=12;fontFamily=Times New Roman;" parent="1" vertex="1">
          <mxGeometry x="-685" y="20" width="90" height="30" as="geometry" />
        </mxCell>
        <mxCell id="l5-qMtQxf-NeuBGAWEjH-16" value="&lt;font&gt;Password&lt;/font&gt;" style="text;html=1;align=center;verticalAlign=middle;resizable=0;points=[];autosize=1;strokeColor=none;fillColor=none;fontSize=12;fontFamily=Times New Roman;" parent="1" vertex="1">
          <mxGeometry x="-370" y="279.76" width="70" height="30" as="geometry" />
        </mxCell>
        <mxCell id="BQlBZ9qGdTyEkBlSmbAt-4" style="edgeStyle=orthogonalEdgeStyle;shape=connector;rounded=0;orthogonalLoop=1;jettySize=auto;html=1;exitX=0.5;exitY=1;exitDx=0;exitDy=0;entryX=0.808;entryY=0.023;entryDx=0;entryDy=0;entryPerimeter=0;strokeColor=default;align=center;verticalAlign=middle;fontFamily=Helvetica;fontSize=11;fontColor=default;labelBackgroundColor=default;startFill=0;endArrow=none;" parent="1" source="MyaQz2SFNksA92ETXeCg-114" target="MyaQz2SFNksA92ETXeCg-59" edge="1">
          <mxGeometry relative="1" as="geometry" />
        </mxCell>
        <mxCell id="BQlBZ9qGdTyEkBlSmbAt-8" style="edgeStyle=orthogonalEdgeStyle;shape=connector;rounded=0;orthogonalLoop=1;jettySize=auto;html=1;exitX=0.5;exitY=1;exitDx=0;exitDy=0;entryX=0.465;entryY=0.016;entryDx=0;entryDy=0;entryPerimeter=0;strokeColor=default;align=center;verticalAlign=middle;fontFamily=Helvetica;fontSize=11;fontColor=default;labelBackgroundColor=default;startFill=0;endArrow=none;" parent="1" source="MyaQz2SFNksA92ETXeCg-58" target="MyaQz2SFNksA92ETXeCg-59" edge="1">
          <mxGeometry relative="1" as="geometry" />
        </mxCell>
        <mxCell id="BQlBZ9qGdTyEkBlSmbAt-9" style="edgeStyle=orthogonalEdgeStyle;shape=connector;rounded=0;orthogonalLoop=1;jettySize=auto;html=1;exitX=0.5;exitY=0;exitDx=0;exitDy=0;entryX=0.115;entryY=0.997;entryDx=0;entryDy=0;entryPerimeter=0;strokeColor=default;align=center;verticalAlign=middle;fontFamily=Helvetica;fontSize=11;fontColor=default;labelBackgroundColor=default;startFill=0;endArrow=none;" parent="1" source="MyaQz2SFNksA92ETXeCg-62" target="MyaQz2SFNksA92ETXeCg-59" edge="1">
          <mxGeometry relative="1" as="geometry" />
        </mxCell>
        <mxCell id="BQlBZ9qGdTyEkBlSmbAt-11" style="edgeStyle=orthogonalEdgeStyle;shape=connector;rounded=0;orthogonalLoop=1;jettySize=auto;html=1;exitX=0.5;exitY=0;exitDx=0;exitDy=0;entryX=0.461;entryY=0.988;entryDx=0;entryDy=0;entryPerimeter=0;strokeColor=default;align=center;verticalAlign=middle;fontFamily=Helvetica;fontSize=11;fontColor=default;labelBackgroundColor=default;startFill=0;endArrow=none;" parent="1" source="MyaQz2SFNksA92ETXeCg-63" target="MyaQz2SFNksA92ETXeCg-59" edge="1">
          <mxGeometry relative="1" as="geometry" />
        </mxCell>
        <mxCell id="BQlBZ9qGdTyEkBlSmbAt-12" style="edgeStyle=orthogonalEdgeStyle;shape=connector;rounded=0;orthogonalLoop=1;jettySize=auto;html=1;exitX=0.5;exitY=1;exitDx=0;exitDy=0;entryX=0.885;entryY=1.007;entryDx=0;entryDy=0;entryPerimeter=0;strokeColor=default;align=center;verticalAlign=middle;fontFamily=Helvetica;fontSize=11;fontColor=default;labelBackgroundColor=default;startFill=0;endArrow=none;" parent="1" source="MyaQz2SFNksA92ETXeCg-65" target="MyaQz2SFNksA92ETXeCg-59" edge="1">
          <mxGeometry relative="1" as="geometry" />
        </mxCell>
        <mxCell id="BQlBZ9qGdTyEkBlSmbAt-13" value="(1,n)" style="text;html=1;align=center;verticalAlign=middle;resizable=0;points=[];autosize=1;strokeColor=none;fillColor=none;fontFamily=Helvetica;fontSize=11;fontColor=default;labelBackgroundColor=default;" parent="1" vertex="1">
          <mxGeometry x="-530" y="409.76" width="50" height="30" as="geometry" />
        </mxCell>
        <mxCell id="BQlBZ9qGdTyEkBlSmbAt-16" value="Indirizzo" style="ellipse;whiteSpace=wrap;html=1;align=center;fontFamily=Times New Roman;" parent="1" vertex="1">
          <mxGeometry x="-640" y="269.76" width="100" height="40" as="geometry" />
        </mxCell>
        <mxCell id="BQlBZ9qGdTyEkBlSmbAt-17" value="" style="ellipse;whiteSpace=wrap;html=1;aspect=fixed;fontFamily=Times New Roman;" parent="1" vertex="1">
          <mxGeometry x="-640" y="249.76000000000002" width="10" height="10" as="geometry" />
        </mxCell>
        <mxCell id="BQlBZ9qGdTyEkBlSmbAt-18" value="" style="ellipse;whiteSpace=wrap;html=1;aspect=fixed;fontFamily=Times New Roman;" parent="1" vertex="1">
          <mxGeometry x="-560" y="249.76000000000002" width="10" height="10" as="geometry" />
        </mxCell>
        <mxCell id="BQlBZ9qGdTyEkBlSmbAt-19" style="edgeStyle=orthogonalEdgeStyle;rounded=0;orthogonalLoop=1;jettySize=auto;html=1;exitX=0.5;exitY=1;exitDx=0;exitDy=0;entryX=0.05;entryY=0.25;entryDx=0;entryDy=0;entryPerimeter=0;endArrow=none;startFill=0;fontFamily=Times New Roman;" parent="1" source="BQlBZ9qGdTyEkBlSmbAt-17" target="BQlBZ9qGdTyEkBlSmbAt-16" edge="1">
          <mxGeometry relative="1" as="geometry" />
        </mxCell>
        <mxCell id="BQlBZ9qGdTyEkBlSmbAt-20" style="edgeStyle=orthogonalEdgeStyle;rounded=0;orthogonalLoop=1;jettySize=auto;html=1;exitX=0.5;exitY=1;exitDx=0;exitDy=0;entryX=1;entryY=0;entryDx=0;entryDy=0;endArrow=none;startFill=0;fontFamily=Times New Roman;" parent="1" target="BQlBZ9qGdTyEkBlSmbAt-16" edge="1">
          <mxGeometry relative="1" as="geometry">
            <mxPoint x="-555" y="259.76" as="sourcePoint" />
            <mxPoint x="-555" y="271.4000000000001" as="targetPoint" />
          </mxGeometry>
        </mxCell>
        <mxCell id="BQlBZ9qGdTyEkBlSmbAt-21" value="" style="ellipse;whiteSpace=wrap;html=1;aspect=fixed;fontFamily=Times New Roman;" parent="1" vertex="1">
          <mxGeometry x="-605" y="249.76000000000002" width="10" height="10" as="geometry" />
        </mxCell>
        <mxCell id="BQlBZ9qGdTyEkBlSmbAt-22" value="&lt;font style=&quot;font-size: 10px;&quot;&gt;Via&lt;/font&gt;" style="text;html=1;align=center;verticalAlign=middle;whiteSpace=wrap;rounded=0;fontFamily=Times New Roman;fontSize=12;fontColor=default;labelBackgroundColor=default;" parent="1" vertex="1">
          <mxGeometry x="-670" y="226.76000000000002" width="60" height="30" as="geometry" />
        </mxCell>
        <mxCell id="BQlBZ9qGdTyEkBlSmbAt-23" value="&lt;font&gt;CAP&lt;/font&gt;" style="text;html=1;align=center;verticalAlign=middle;resizable=0;points=[];autosize=1;strokeColor=none;fillColor=none;fontFamily=Times New Roman;fontSize=10;fontColor=default;labelBackgroundColor=default;" parent="1" vertex="1">
          <mxGeometry x="-575" y="226.76000000000002" width="40" height="30" as="geometry" />
        </mxCell>
        <mxCell id="BQlBZ9qGdTyEkBlSmbAt-24" value="&lt;font&gt;Civico&lt;/font&gt;" style="text;html=1;align=center;verticalAlign=middle;resizable=0;points=[];autosize=1;strokeColor=none;fillColor=none;fontFamily=Times New Roman;fontSize=10;fontColor=default;labelBackgroundColor=default;" parent="1" vertex="1">
          <mxGeometry x="-625" y="226.76000000000002" width="50" height="30" as="geometry" />
        </mxCell>
        <mxCell id="BQlBZ9qGdTyEkBlSmbAt-25" style="edgeStyle=orthogonalEdgeStyle;rounded=0;orthogonalLoop=1;jettySize=auto;html=1;exitX=0.5;exitY=1;exitDx=0;exitDy=0;entryX=0.4;entryY=0.035;entryDx=0;entryDy=0;entryPerimeter=0;fontFamily=Times New Roman;endArrow=none;startFill=0;" parent="1" source="BQlBZ9qGdTyEkBlSmbAt-21" target="BQlBZ9qGdTyEkBlSmbAt-16" edge="1">
          <mxGeometry relative="1" as="geometry" />
        </mxCell>
        <mxCell id="BQlBZ9qGdTyEkBlSmbAt-26" value="(1,n)" style="text;html=1;align=center;verticalAlign=middle;resizable=0;points=[];autosize=1;strokeColor=none;fillColor=none;fontSize=11;fontFamily=Times New Roman;" parent="1" vertex="1">
          <mxGeometry x="-590" y="345" width="40" height="30" as="geometry" />
        </mxCell>
        <mxCell id="BQlBZ9qGdTyEkBlSmbAt-27" style="edgeStyle=orthogonalEdgeStyle;shape=connector;rounded=0;orthogonalLoop=1;jettySize=auto;html=1;exitX=0.5;exitY=1;exitDx=0;exitDy=0;strokeColor=default;align=center;verticalAlign=middle;fontFamily=Helvetica;fontSize=11;fontColor=default;labelBackgroundColor=default;startFill=0;endArrow=none;entryX=0.035;entryY=-0.011;entryDx=0;entryDy=0;entryPerimeter=0;" parent="1" source="BQlBZ9qGdTyEkBlSmbAt-16" target="MyaQz2SFNksA92ETXeCg-1" edge="1">
          <mxGeometry relative="1" as="geometry">
            <mxPoint x="-620" y="309.75999999999993" as="sourcePoint" />
            <mxPoint x="-580" y="370" as="targetPoint" />
            <Array as="points">
              <mxPoint x="-590" y="320" />
              <mxPoint x="-556" y="320" />
            </Array>
          </mxGeometry>
        </mxCell>
        <mxCell id="IIdklsZDRmUn1JEuDDiX-6" value="" style="shape=flexArrow;endArrow=classic;html=1;rounded=0;strokeColor=default;align=center;verticalAlign=middle;fontFamily=Helvetica;fontSize=11;fontColor=default;labelBackgroundColor=default;edgeStyle=orthogonalEdgeStyle;fillColor=#000000;" parent="1" edge="1">
          <mxGeometry width="50" height="50" relative="1" as="geometry">
            <mxPoint x="-600.14" y="161" as="sourcePoint" />
            <mxPoint x="-600.14" y="110" as="targetPoint" />
          </mxGeometry>
        </mxCell>
        <mxCell id="IIdklsZDRmUn1JEuDDiX-11" value="" style="endArrow=none;html=1;rounded=0;strokeColor=default;align=center;verticalAlign=middle;fontFamily=Helvetica;fontSize=11;fontColor=default;labelBackgroundColor=default;edgeStyle=orthogonalEdgeStyle;" parent="1" edge="1">
          <mxGeometry width="50" height="50" relative="1" as="geometry">
            <mxPoint x="-500" y="160" as="sourcePoint" />
            <mxPoint x="-700" y="160" as="targetPoint" />
          </mxGeometry>
        </mxCell>
        <mxCell id="IIdklsZDRmUn1JEuDDiX-12" value="Utente" style="whiteSpace=wrap;html=1;align=center;fontFamily=Times New Roman;" parent="1" vertex="1">
          <mxGeometry x="-655" y="70" width="110" height="40" as="geometry" />
        </mxCell>
        <mxCell id="IIdklsZDRmUn1JEuDDiX-14" value="" style="ellipse;whiteSpace=wrap;html=1;aspect=fixed;fontFamily=Times New Roman;fillColor=#000000;" parent="1" vertex="1">
          <mxGeometry x="-650" y="40" width="10" height="10" as="geometry" />
        </mxCell>
        <mxCell id="IIdklsZDRmUn1JEuDDiX-17" style="edgeStyle=orthogonalEdgeStyle;shape=connector;rounded=0;orthogonalLoop=1;jettySize=auto;html=1;exitX=0.5;exitY=1;exitDx=0;exitDy=0;entryX=0.092;entryY=0.001;entryDx=0;entryDy=0;entryPerimeter=0;strokeColor=default;align=center;verticalAlign=middle;fontFamily=Helvetica;fontSize=11;fontColor=default;labelBackgroundColor=default;startFill=0;endArrow=none;" parent="1" source="IIdklsZDRmUn1JEuDDiX-14" target="IIdklsZDRmUn1JEuDDiX-12" edge="1">
          <mxGeometry relative="1" as="geometry" />
        </mxCell>
        <mxCell id="IIdklsZDRmUn1JEuDDiX-18" value="" style="ellipse;whiteSpace=wrap;html=1;aspect=fixed;fontFamily=Times New Roman;" parent="1" vertex="1">
          <mxGeometry x="-590" y="40" width="10" height="10" as="geometry" />
        </mxCell>
        <mxCell id="IIdklsZDRmUn1JEuDDiX-19" style="edgeStyle=orthogonalEdgeStyle;shape=connector;rounded=0;orthogonalLoop=1;jettySize=auto;html=1;exitX=0.5;exitY=1;exitDx=0;exitDy=0;entryX=0.637;entryY=0.011;entryDx=0;entryDy=0;entryPerimeter=0;strokeColor=default;align=center;verticalAlign=middle;fontFamily=Helvetica;fontSize=11;fontColor=default;labelBackgroundColor=default;startFill=0;endArrow=none;" parent="1" source="IIdklsZDRmUn1JEuDDiX-18" target="IIdklsZDRmUn1JEuDDiX-12" edge="1">
          <mxGeometry relative="1" as="geometry" />
        </mxCell>
        <mxCell id="IIdklsZDRmUn1JEuDDiX-21" value="Password" style="text;html=1;align=center;verticalAlign=middle;resizable=0;points=[];autosize=1;strokeColor=none;fillColor=none;fontSize=12;fontFamily=Times New Roman;" parent="1" vertex="1">
          <mxGeometry x="-610" y="20" width="70" height="30" as="geometry" />
        </mxCell>
        <mxCell id="IIdklsZDRmUn1JEuDDiX-22" style="edgeStyle=orthogonalEdgeStyle;shape=connector;rounded=0;orthogonalLoop=1;jettySize=auto;html=1;exitX=0.5;exitY=1;exitDx=0;exitDy=0;entryX=0.292;entryY=-0.001;entryDx=0;entryDy=0;entryPerimeter=0;strokeColor=default;align=center;verticalAlign=middle;fontFamily=Helvetica;fontSize=11;fontColor=default;labelBackgroundColor=default;startFill=0;endArrow=none;" parent="1" source="MyaQz2SFNksA92ETXeCg-51" target="MyaQz2SFNksA92ETXeCg-49" edge="1">
          <mxGeometry relative="1" as="geometry" />
        </mxCell>
        <mxCell id="IIdklsZDRmUn1JEuDDiX-25" value="" style="curved=1;endArrow=none;html=1;rounded=0;strokeColor=default;align=center;verticalAlign=middle;fontFamily=Helvetica;fontSize=11;fontColor=default;labelBackgroundColor=default;edgeStyle=orthogonalEdgeStyle;startFill=0;" parent="1" edge="1">
          <mxGeometry width="50" height="50" relative="1" as="geometry">
            <mxPoint x="-190" y="420" as="sourcePoint" />
            <mxPoint x="-50" y="440" as="targetPoint" />
            <Array as="points">
              <mxPoint x="-190" y="460" />
              <mxPoint x="-50" y="460" />
            </Array>
          </mxGeometry>
        </mxCell>
        <mxCell id="yL2FJkh1uTcGQt0XIGCP-5" value="Oggetto" style="whiteSpace=wrap;html=1;align=center;" parent="1" vertex="1">
          <mxGeometry x="-540" y="760" width="100" height="40" as="geometry" />
        </mxCell>
        <mxCell id="yL2FJkh1uTcGQt0XIGCP-6" value="Dimensioni" style="ellipse;whiteSpace=wrap;html=1;align=center;fontSize=10;fontFamily=Times New Roman;" parent="1" vertex="1">
          <mxGeometry x="-600" y="850" width="70" height="20" as="geometry" />
        </mxCell>
        <mxCell id="yL2FJkh1uTcGQt0XIGCP-7" value="" style="ellipse;whiteSpace=wrap;html=1;" parent="1" vertex="1">
          <mxGeometry x="-600" y="880" width="10" height="10" as="geometry" />
        </mxCell>
        <mxCell id="yL2FJkh1uTcGQt0XIGCP-11" value="" style="ellipse;whiteSpace=wrap;html=1;" parent="1" vertex="1">
          <mxGeometry x="-630" y="855" width="10" height="10" as="geometry" />
        </mxCell>
        <mxCell id="yL2FJkh1uTcGQt0XIGCP-13" value="Larghezza" style="text;whiteSpace=wrap;html=1;fontSize=12;fontFamily=Times New Roman;" parent="1" vertex="1">
          <mxGeometry x="-562.5" y="880" width="35" height="15" as="geometry" />
        </mxCell>
        <mxCell id="yL2FJkh1uTcGQt0XIGCP-14" value="" style="ellipse;whiteSpace=wrap;html=1;fillColor=#000000;" parent="1" vertex="1">
          <mxGeometry x="-540" y="735" width="10" height="10" as="geometry" />
        </mxCell>
        <mxCell id="yL2FJkh1uTcGQt0XIGCP-15" value="" style="ellipse;whiteSpace=wrap;html=1;" parent="1" vertex="1">
          <mxGeometry x="-460" y="735" width="10" height="10" as="geometry" />
        </mxCell>
        <mxCell id="yL2FJkh1uTcGQt0XIGCP-16" style="edgeStyle=orthogonalEdgeStyle;rounded=0;orthogonalLoop=1;jettySize=auto;html=1;exitX=0.5;exitY=1;exitDx=0;exitDy=0;entryX=0.051;entryY=0.013;entryDx=0;entryDy=0;entryPerimeter=0;endArrow=none;startFill=0;" parent="1" source="yL2FJkh1uTcGQt0XIGCP-14" target="yL2FJkh1uTcGQt0XIGCP-5" edge="1">
          <mxGeometry relative="1" as="geometry" />
        </mxCell>
        <mxCell id="yL2FJkh1uTcGQt0XIGCP-17" value="&lt;font style=&quot;font-size: 9px;&quot;&gt;Codice&lt;/font&gt;" style="text;html=1;align=center;verticalAlign=middle;resizable=0;points=[];autosize=1;strokeColor=none;fillColor=none;fontFamily=Times New Roman;" parent="1" vertex="1">
          <mxGeometry x="-560" y="715" width="50" height="30" as="geometry" />
        </mxCell>
        <mxCell id="yL2FJkh1uTcGQt0XIGCP-18" value="&lt;font style=&quot;font-size: 9px;&quot;&gt;Descrizione&lt;/font&gt;" style="text;html=1;align=center;verticalAlign=middle;resizable=0;points=[];autosize=1;strokeColor=none;fillColor=none;fontFamily=Times New Roman;" parent="1" vertex="1">
          <mxGeometry x="-490" y="715" width="70" height="30" as="geometry" />
        </mxCell>
        <mxCell id="yL2FJkh1uTcGQt0XIGCP-20" value="" style="ellipse;whiteSpace=wrap;html=1;" parent="1" vertex="1">
          <mxGeometry x="-540" y="880" width="10" height="10" as="geometry" />
        </mxCell>
        <mxCell id="yL2FJkh1uTcGQt0XIGCP-21" value="" style="ellipse;whiteSpace=wrap;html=1;" parent="1" vertex="1">
          <mxGeometry x="-450" y="820" width="10" height="10" as="geometry" />
        </mxCell>
        <mxCell id="yL2FJkh1uTcGQt0XIGCP-22" value="&lt;font style=&quot;font-size: 9px;&quot;&gt;prezzo base&lt;/font&gt;" style="text;html=1;align=center;verticalAlign=middle;resizable=0;points=[];autosize=1;strokeColor=none;fillColor=none;fontFamily=Times New Roman;" parent="1" vertex="1">
          <mxGeometry x="-520" y="835" width="70" height="30" as="geometry" />
        </mxCell>
        <mxCell id="yL2FJkh1uTcGQt0XIGCP-23" style="edgeStyle=orthogonalEdgeStyle;rounded=0;orthogonalLoop=1;jettySize=auto;html=1;exitX=0.5;exitY=0;exitDx=0;exitDy=0;entryX=0.943;entryY=1.014;entryDx=0;entryDy=0;entryPerimeter=0;endArrow=none;startFill=0;" parent="1" source="yL2FJkh1uTcGQt0XIGCP-21" target="yL2FJkh1uTcGQt0XIGCP-5" edge="1">
          <mxGeometry relative="1" as="geometry" />
        </mxCell>
        <mxCell id="yL2FJkh1uTcGQt0XIGCP-24" value="&lt;font style=&quot;font-size: 9px;&quot;&gt;Stato&lt;/font&gt;" style="text;html=1;align=center;verticalAlign=middle;resizable=0;points=[];autosize=1;strokeColor=none;fillColor=none;fontFamily=Times New Roman;" parent="1" vertex="1">
          <mxGeometry x="-465" y="820" width="40" height="30" as="geometry" />
        </mxCell>
        <mxCell id="yL2FJkh1uTcGQt0XIGCP-25" style="edgeStyle=orthogonalEdgeStyle;rounded=0;orthogonalLoop=1;jettySize=auto;html=1;exitX=0.5;exitY=0;exitDx=0;exitDy=0;entryX=0.076;entryY=0.746;entryDx=0;entryDy=0;entryPerimeter=0;endArrow=none;startFill=0;" parent="1" source="yL2FJkh1uTcGQt0XIGCP-7" target="yL2FJkh1uTcGQt0XIGCP-6" edge="1">
          <mxGeometry relative="1" as="geometry" />
        </mxCell>
        <mxCell id="yL2FJkh1uTcGQt0XIGCP-26" style="edgeStyle=orthogonalEdgeStyle;rounded=0;orthogonalLoop=1;jettySize=auto;html=1;exitX=0.5;exitY=0;exitDx=0;exitDy=0;entryX=0.151;entryY=1;entryDx=0;entryDy=0;entryPerimeter=0;endArrow=none;startFill=0;" parent="1" source="yL2FJkh1uTcGQt0XIGCP-6" target="yL2FJkh1uTcGQt0XIGCP-5" edge="1">
          <mxGeometry relative="1" as="geometry" />
        </mxCell>
        <mxCell id="yL2FJkh1uTcGQt0XIGCP-29" value="" style="ellipse;whiteSpace=wrap;html=1;" parent="1" vertex="1">
          <mxGeometry x="-485" y="830" width="10" height="10" as="geometry" />
        </mxCell>
        <mxCell id="yL2FJkh1uTcGQt0XIGCP-31" style="edgeStyle=orthogonalEdgeStyle;rounded=0;orthogonalLoop=1;jettySize=auto;html=1;exitX=0.5;exitY=1;exitDx=0;exitDy=0;entryX=0.85;entryY=0.007;entryDx=0;entryDy=0;entryPerimeter=0;endArrow=none;startFill=0;" parent="1" source="yL2FJkh1uTcGQt0XIGCP-15" target="yL2FJkh1uTcGQt0XIGCP-5" edge="1">
          <mxGeometry relative="1" as="geometry" />
        </mxCell>
        <mxCell id="yL2FJkh1uTcGQt0XIGCP-32" style="edgeStyle=orthogonalEdgeStyle;rounded=0;orthogonalLoop=1;jettySize=auto;html=1;exitX=0.5;exitY=0;exitDx=0;exitDy=0;entryX=0.598;entryY=1.031;entryDx=0;entryDy=0;entryPerimeter=0;endArrow=none;startFill=0;" parent="1" source="yL2FJkh1uTcGQt0XIGCP-29" target="yL2FJkh1uTcGQt0XIGCP-5" edge="1">
          <mxGeometry relative="1" as="geometry" />
        </mxCell>
        <mxCell id="yL2FJkh1uTcGQt0XIGCP-33" value="Lunghezza" style="text;html=1;align=center;verticalAlign=middle;resizable=0;points=[];autosize=1;strokeColor=none;fillColor=none;" parent="1" vertex="1">
          <mxGeometry x="-660" y="880" width="80" height="30" as="geometry" />
        </mxCell>
        <mxCell id="yL2FJkh1uTcGQt0XIGCP-34" style="edgeStyle=orthogonalEdgeStyle;rounded=0;orthogonalLoop=1;jettySize=auto;html=1;exitX=1;exitY=0.5;exitDx=0;exitDy=0;entryX=0.004;entryY=0.467;entryDx=0;entryDy=0;entryPerimeter=0;fontFamily=Times New Roman;endArrow=none;startFill=0;" parent="1" source="yL2FJkh1uTcGQt0XIGCP-11" target="yL2FJkh1uTcGQt0XIGCP-6" edge="1">
          <mxGeometry relative="1" as="geometry" />
        </mxCell>
        <mxCell id="yL2FJkh1uTcGQt0XIGCP-35" value="Altezza" style="text;html=1;align=center;verticalAlign=middle;resizable=0;points=[];autosize=1;strokeColor=none;fillColor=none;fontFamily=Times New Roman;" parent="1" vertex="1">
          <mxGeometry x="-680" y="845" width="60" height="30" as="geometry" />
        </mxCell>
        <mxCell id="yL2FJkh1uTcGQt0XIGCP-36" style="edgeStyle=orthogonalEdgeStyle;rounded=0;orthogonalLoop=1;jettySize=auto;html=1;exitX=0.5;exitY=0;exitDx=0;exitDy=0;entryX=0.924;entryY=0.772;entryDx=0;entryDy=0;entryPerimeter=0;endArrow=none;startFill=0;" parent="1" source="yL2FJkh1uTcGQt0XIGCP-20" target="yL2FJkh1uTcGQt0XIGCP-6" edge="1">
          <mxGeometry relative="1" as="geometry" />
        </mxCell>
        <mxCell id="zFlmvIqiSwW0mTtG42AD-3" value="&lt;font style=&quot;font-size: 9px;&quot;&gt;(1,1)&lt;/font&gt;" style="text;html=1;align=center;verticalAlign=middle;resizable=0;points=[];autosize=1;strokeColor=none;fillColor=none;fontFamily=Times New Roman;" parent="1" vertex="1">
          <mxGeometry x="-520" y="790" width="40" height="30" as="geometry" />
        </mxCell>
        <mxCell id="zFlmvIqiSwW0mTtG42AD-4" value="&lt;font style=&quot;font-size: 9px;&quot;&gt;(1,1)&lt;/font&gt;" style="text;html=1;align=center;verticalAlign=middle;resizable=0;points=[];autosize=1;strokeColor=none;fillColor=none;fontFamily=Times New Roman;" parent="1" vertex="1">
          <mxGeometry x="-445" y="745" width="40" height="30" as="geometry" />
        </mxCell>
        <mxCell id="zFlmvIqiSwW0mTtG42AD-8" value="&lt;font style=&quot;font-size: 9px;&quot;&gt;(1,1)&lt;/font&gt;" style="text;html=1;align=center;verticalAlign=middle;resizable=0;points=[];autosize=1;strokeColor=none;fillColor=none;fontFamily=Times New Roman;" parent="1" vertex="1">
          <mxGeometry x="-575" y="770" width="40" height="30" as="geometry" />
        </mxCell>
        <mxCell id="zFlmvIqiSwW0mTtG42AD-10" value="&lt;font size=&quot;1&quot;&gt;(0,n)&lt;/font&gt;" style="text;html=1;align=center;verticalAlign=middle;resizable=0;points=[];autosize=1;strokeColor=none;fillColor=none;fontFamily=Times New Roman;" parent="1" vertex="1">
          <mxGeometry x="-595" y="599.43" width="40" height="30" as="geometry" />
        </mxCell>
        <mxCell id="zFlmvIqiSwW0mTtG42AD-14" style="edgeStyle=orthogonalEdgeStyle;rounded=0;orthogonalLoop=1;jettySize=auto;html=1;exitX=0;exitY=0.5;exitDx=0;exitDy=0;entryX=0.25;entryY=1;entryDx=0;entryDy=0;endArrow=none;startFill=0;" parent="1" source="zFlmvIqiSwW0mTtG42AD-11" target="MyaQz2SFNksA92ETXeCg-103" edge="1">
          <mxGeometry relative="1" as="geometry" />
        </mxCell>
        <mxCell id="zFlmvIqiSwW0mTtG42AD-11" value="Gerarchia" style="shape=rhombus;perimeter=rhombusPerimeter;whiteSpace=wrap;html=1;align=center;fontFamily=Times New Roman;" parent="1" vertex="1">
          <mxGeometry x="-330.05" y="1045" width="120" height="60" as="geometry" />
        </mxCell>
        <mxCell id="zFlmvIqiSwW0mTtG42AD-15" style="edgeStyle=orthogonalEdgeStyle;rounded=0;orthogonalLoop=1;jettySize=auto;html=1;exitX=1;exitY=0.5;exitDx=0;exitDy=0;entryX=0.804;entryY=0.986;entryDx=0;entryDy=0;entryPerimeter=0;endArrow=none;startFill=0;" parent="1" source="zFlmvIqiSwW0mTtG42AD-11" target="MyaQz2SFNksA92ETXeCg-103" edge="1">
          <mxGeometry relative="1" as="geometry">
            <Array as="points">
              <mxPoint x="-190.05" y="1075" />
              <mxPoint x="-190.05" y="1004" />
              <mxPoint x="-240.05" y="1004" />
            </Array>
          </mxGeometry>
        </mxCell>
        <mxCell id="zFlmvIqiSwW0mTtG42AD-17" value="(0,n)" style="text;html=1;align=center;verticalAlign=middle;resizable=0;points=[];autosize=1;strokeColor=none;fillColor=none;fontFamily=Times New Roman;fontSize=12;fontColor=default;labelBackgroundColor=default;" parent="1" vertex="1">
          <mxGeometry x="-250.05" y="963" width="50" height="30" as="geometry" />
        </mxCell>
        <mxCell id="zFlmvIqiSwW0mTtG42AD-18" value="&lt;font face=&quot;Times New Roman&quot;&gt;sottocategoria&lt;/font&gt;" style="text;html=1;align=center;verticalAlign=middle;resizable=0;points=[];autosize=1;strokeColor=none;fillColor=none;" parent="1" vertex="1">
          <mxGeometry x="-195.05" y="1003" width="90" height="30" as="geometry" />
        </mxCell>
        <mxCell id="zFlmvIqiSwW0mTtG42AD-20" value="&lt;span style=&quot;color: rgb(0, 0, 0); font-family: &amp;quot;Times New Roman&amp;quot;; font-size: 12px; font-style: normal; font-variant-ligatures: normal; font-variant-caps: normal; font-weight: 400; letter-spacing: normal; orphans: 2; text-align: center; text-indent: 0px; text-transform: none; widows: 2; word-spacing: 0px; -webkit-text-stroke-width: 0px; white-space: nowrap; background-color: rgb(255, 255, 255); text-decoration-thickness: initial; text-decoration-style: initial; text-decoration-color: initial; float: none; display: inline !important;&quot;&gt;(1,n)&lt;/span&gt;" style="text;whiteSpace=wrap;html=1;" parent="1" vertex="1">
          <mxGeometry x="-325" y="963" width="60" height="40" as="geometry" />
        </mxCell>
        <mxCell id="zFlmvIqiSwW0mTtG42AD-22" value="&lt;font face=&quot;Times New Roman&quot;&gt;macrocategoria&lt;/font&gt;" style="text;html=1;align=center;verticalAlign=middle;resizable=0;points=[];autosize=1;strokeColor=none;fillColor=none;" parent="1" vertex="1">
          <mxGeometry x="-445" y="1003" width="100" height="30" as="geometry" />
        </mxCell>
        <mxCell id="WzV34CDxdVOIjTIPZ7gJ-2" style="edgeStyle=orthogonalEdgeStyle;rounded=0;orthogonalLoop=1;jettySize=auto;html=1;exitX=0.5;exitY=1;exitDx=0;exitDy=0;endArrow=none;startFill=0;" edge="1" parent="1" source="WzV34CDxdVOIjTIPZ7gJ-3">
          <mxGeometry relative="1" as="geometry">
            <mxPoint x="-560" y="699.43" as="targetPoint" />
          </mxGeometry>
        </mxCell>
        <mxCell id="WzV34CDxdVOIjTIPZ7gJ-3" value="&lt;font face=&quot;Times New Roman&quot;&gt;Oggetto venduto&lt;/font&gt;" style="whiteSpace=wrap;html=1;align=center;" vertex="1" parent="1">
          <mxGeometry x="-615" y="629.43" width="100" height="40" as="geometry" />
        </mxCell>
        <mxCell id="WzV34CDxdVOIjTIPZ7gJ-4" style="edgeStyle=orthogonalEdgeStyle;rounded=0;orthogonalLoop=1;jettySize=auto;html=1;exitX=0.5;exitY=1;exitDx=0;exitDy=0;endArrow=none;startFill=0;" edge="1" parent="1" source="WzV34CDxdVOIjTIPZ7gJ-5">
          <mxGeometry relative="1" as="geometry">
            <mxPoint x="-420.1111111111111" y="699.43" as="targetPoint" />
          </mxGeometry>
        </mxCell>
        <mxCell id="WzV34CDxdVOIjTIPZ7gJ-5" value="&lt;font face=&quot;Times New Roman&quot;&gt;Oggetto non venduto&lt;/font&gt;" style="whiteSpace=wrap;html=1;align=center;" vertex="1" parent="1">
          <mxGeometry x="-470" y="629.43" width="100" height="40" as="geometry" />
        </mxCell>
        <mxCell id="WzV34CDxdVOIjTIPZ7gJ-6" style="edgeStyle=orthogonalEdgeStyle;rounded=0;orthogonalLoop=1;jettySize=auto;html=1;endArrow=none;startFill=0;" edge="1" parent="1">
          <mxGeometry relative="1" as="geometry">
            <mxPoint x="-490" y="699.43" as="targetPoint" />
            <mxPoint x="-420" y="699.43" as="sourcePoint" />
            <Array as="points">
              <mxPoint x="-450" y="699.43" />
              <mxPoint x="-450" y="699.43" />
            </Array>
          </mxGeometry>
        </mxCell>
        <mxCell id="WzV34CDxdVOIjTIPZ7gJ-7" value="" style="endArrow=none;html=1;rounded=0;" edge="1" parent="1">
          <mxGeometry width="50" height="50" relative="1" as="geometry">
            <mxPoint x="-560" y="699.43" as="sourcePoint" />
            <mxPoint x="-490" y="699.43" as="targetPoint" />
          </mxGeometry>
        </mxCell>
        <mxCell id="WzV34CDxdVOIjTIPZ7gJ-8" value="" style="shape=flexArrow;endArrow=classic;html=1;rounded=0;entryX=0.5;entryY=0;entryDx=0;entryDy=0;fillColor=#000000;" edge="1" parent="1" target="yL2FJkh1uTcGQt0XIGCP-5">
          <mxGeometry width="50" height="50" relative="1" as="geometry">
            <mxPoint x="-490" y="700" as="sourcePoint" />
            <mxPoint x="-560" y="630" as="targetPoint" />
          </mxGeometry>
        </mxCell>
      </root>
    </mxGraphModel>
  </diagram>
</mxfile>
